<svg width="24" height="29" viewBox="0 0 24 29" fill="none" xmlns="http://www.w3.org/2000/svg">
<rect width="24" height="28.0986" transform="translate(0 0.408691)" fill="#F4E6D1"/>
<path d="M15.9999 21.4827C14.4228 21.4827 12.9465 20.7599 11.8511 19.533" stroke="black" stroke-width="2" stroke-linecap="round" stroke-linejoin="round"/>
<path d="M7.15475 9.83573C5.78876 8.32323 3.95637 7.43335 2 7.43335" stroke="black" stroke-width="2" stroke-linecap="round" stroke-linejoin="round"/>
<path d="M22.8971 22.519C23.4431 22.1195 23.4431 21.3045 22.8971 20.905L17.5905 17.022C16.9299 16.5385 16 17.0104 16 17.829V25.595C16 26.4136 16.9299 26.8854 17.5905 26.402L22.8971 22.519Z" fill="black"/>
<path d="M16 7.43337V7.43337C13.6018 7.43337 11.4629 8.94241 10.6588 11.2018L8.67645 16.7721C7.67131 19.5964 4.99781 21.4827 2 21.4827V21.4827" stroke="black" stroke-width="2" stroke-linecap="round" stroke-linejoin="round"/>
<path d="M21.8971 8.4697C22.4431 8.0702 22.4431 7.25516 21.8971 6.85566L16.5905 2.97265C15.9299 2.48923 15 2.96105 15 3.77967V11.5457C15 12.3643 15.9299 12.8361 16.5905 12.3527L21.8971 8.4697Z" fill="black"/>
</svg>
