<svg width="16" height="12" viewBox="0 0 16 12" fill="none" xmlns="http://www.w3.org/2000/svg">
<g id="Vector">
<path id="Vector-35" fill-rule="evenodd" clip-rule="evenodd" d="M2.48492 8.9509C1.61278 8.89414 0.950436 8.14331 1.00292 7.2709V4.6709C0.950436 3.79849 1.61278 3.04766 2.48492 2.9909H3.59092C3.92246 2.98881 4.24208 2.867 4.49092 2.6479L6.03392 1.3169C6.50299 0.947275 7.14849 0.896499 7.66959 1.18823C8.19068 1.47997 8.48482 2.0568 8.41492 2.6499V9.2919C8.48482 9.885 8.19068 10.4618 7.66959 10.7536C7.14849 11.0453 6.50299 10.9945 6.03392 10.6249L4.48892 9.2939C4.24008 9.0748 3.92046 8.95299 3.58892 8.9509H2.48492Z" stroke="black" stroke-width="1.5" stroke-linecap="round" stroke-linejoin="round"/>
<path id="Vector-36" d="M14.0651 0.936808C13.8159 0.605906 13.3457 0.539637 13.0148 0.78879C12.6839 1.03794 12.6176 1.50817 12.8668 1.83907L14.0651 0.936808ZM12.8668 10.1038C12.6176 10.4347 12.6839 10.9049 13.0148 11.1541C13.3457 11.4032 13.8159 11.337 14.0651 11.0061L12.8668 10.1038ZM11.545 2.04427C11.2746 1.73052 10.801 1.69542 10.4873 1.96585C10.1735 2.23629 10.1384 2.70987 10.4088 3.02361L11.545 2.04427ZM10.4088 8.91927C10.1384 9.23301 10.1735 9.70659 10.4873 9.97703C10.801 10.2475 11.2746 10.2124 11.545 9.89861L10.4088 8.91927ZM12.8668 1.83907C14.7092 4.28595 14.7092 7.65693 12.8668 10.1038L14.0651 11.0061C16.3097 8.02494 16.3097 3.91794 14.0651 0.936808L12.8668 1.83907ZM10.4088 3.02361C11.869 4.7176 11.869 7.22528 10.4088 8.91927L11.545 9.89861C13.4903 7.64183 13.4903 4.30104 11.545 2.04427L10.4088 3.02361Z" fill="black"/>
</g>
</svg>
