<svg width="13" height="16" viewBox="0 0 13 16" fill="none" xmlns="http://www.w3.org/2000/svg">
<g id="Vector">
<path id="Vector-21" fill-rule="evenodd" clip-rule="evenodd" d="M12.0003 13.2342C11.969 12.3071 11.1976 11.5777 10.2702 11.5986C9.34284 11.6194 8.60492 12.3826 8.61534 13.3102C8.62577 14.2377 9.38067 14.9842 10.3083 14.9842C11.2586 14.9677 12.0159 14.1845 12.0003 13.2342Z" stroke="black" stroke-width="1.5" stroke-linecap="round" stroke-linejoin="round"/>
<path id="Vector-22" fill-rule="evenodd" clip-rule="evenodd" d="M6.07735 7.98413C6.10075 9.40999 4.9642 10.585 3.53836 10.6091C2.1129 10.5845 0.97696 9.40961 1.00035 7.98413C0.97696 6.55866 2.1129 5.38378 3.53836 5.35913C4.9642 5.38323 6.10075 6.55827 6.07735 7.98413Z" stroke="black" stroke-width="1.5" stroke-linecap="round" stroke-linejoin="round"/>
<path id="Vector-23" fill-rule="evenodd" clip-rule="evenodd" d="M11.1543 2.73414C11.1692 3.34862 10.85 3.92293 10.3202 4.23456C9.79035 4.54619 9.13326 4.54619 8.60345 4.23456C8.07365 3.92293 7.75436 3.34862 7.7693 2.73414C7.75436 2.11966 8.07365 1.54536 8.60345 1.23372C9.13326 0.922092 9.79035 0.922092 10.3202 1.23372C10.85 1.54536 11.1692 2.11966 11.1543 2.73414Z" stroke="black" stroke-width="1.5" stroke-linecap="round" stroke-linejoin="round"/>
<path id="Vector-24" d="M8.6046 12.6881C8.94253 12.9277 9.41066 12.8479 9.6502 12.51C9.88974 12.1721 9.80998 11.7039 9.47206 11.4644L8.6046 12.6881ZM5.97206 8.9834C5.63413 8.74386 5.166 8.82361 4.92646 9.16154C4.68692 9.49946 4.76668 9.96759 5.1046 10.2071L5.97206 8.9834ZM8.70089 4.44279C9.00328 4.15971 9.01893 3.6851 8.73586 3.38271C8.45278 3.08032 7.97816 3.06466 7.67577 3.34774L8.70089 4.44279ZM5.02977 5.82474C4.72738 6.10781 4.71173 6.58243 4.9948 6.88482C5.27788 7.18721 5.7525 7.20287 6.05489 6.91979L5.02977 5.82474ZM9.47206 11.4644L5.97206 8.9834L5.1046 10.2071L8.6046 12.6881L9.47206 11.4644ZM7.67577 3.34774L5.02977 5.82474L6.05489 6.91979L8.70089 4.44279L7.67577 3.34774Z" fill="black"/>
</g>
</svg>
