<svg width="18" height="16" viewBox="0 0 18 16" fill="none" xmlns="http://www.w3.org/2000/svg">
<g id="Vector">
<path id="Vector-69" d="M4.46408 8.16565C4.6353 8.54281 5.07986 8.70976 5.45703 8.53854C5.8342 8.36731 6.00115 7.92275 5.82992 7.54559L4.46408 8.16565ZM3.162 6.58562L3.15209 7.33555C3.15697 7.33562 3.16185 7.33563 3.16672 7.3356L3.162 6.58562ZM1 8.69062L0.25 8.68049V8.69062H1ZM1 12.9026H0.249906L0.250094 12.9145L1 12.9026ZM3.162 15.0026L3.16791 14.2526C3.16263 14.2526 3.15735 14.2526 3.15206 14.2527L3.162 15.0026ZM5.92934 13.7892C6.06387 13.3975 5.85536 12.9708 5.4636 12.8363C5.07185 12.7017 4.6452 12.9103 4.51066 13.302L5.92934 13.7892ZM5.83221 7.55068C5.6638 7.17225 5.2205 7.00199 4.84207 7.1704C4.46363 7.33881 4.29338 7.78212 4.46179 8.16055L5.83221 7.55068ZM5.324 8.69062L4.574 8.68991V8.69062H5.324ZM5.324 12.9026H4.57398L4.57402 12.9078L5.324 12.9026ZM4.51059 13.3182C4.38279 13.7122 4.59861 14.1352 4.99261 14.263C5.38662 14.3908 5.80962 14.175 5.93741 13.781L4.51059 13.3182ZM4.47556 7.52145C4.291 7.89227 4.442 8.3425 4.81283 8.52706C5.18366 8.71161 5.63388 8.56061 5.81844 8.18979L4.47556 7.52145ZM5.855 6.98662L5.41219 6.38129C5.40539 6.38626 5.39867 6.39136 5.39204 6.39656L5.855 6.98662ZM6.233 6.45062L6.95185 6.66452C6.95451 6.65558 6.957 6.64659 6.95933 6.63756L6.233 6.45062ZM7.314 2.25062L6.59387 2.04105C6.59169 2.04856 6.58962 2.0561 6.58767 2.06367L7.314 2.25062ZM9.433 1.06062L9.23713 1.78459C9.24286 1.78614 9.2486 1.78762 9.25436 1.78903L9.433 1.06062ZM10.477 1.83447L9.83201 2.21721V2.21721L10.477 1.83447ZM10.656 3.12162L11.3791 3.32085L11.3809 3.31384L10.656 3.12162ZM10.038 5.36462L9.31485 5.16537L9.3119 5.17678L10.038 5.36462ZM10.1929 6.10118L9.60394 6.56555L9.60394 6.56555L10.1929 6.10118ZM10.873 6.42362V5.6735L10.8597 5.67373L10.873 6.42362ZM14.405 6.42362V7.17369L14.4153 7.17355L14.405 6.42362ZM16.2259 7.14896L16.749 6.61153V6.61153L16.2259 7.14896ZM17 8.94962H17.7501L17.7499 8.93973L17 8.94962ZM17 12.3166L17.75 12.3268V12.3166H17ZM16.2255 14.1166L15.7025 13.5791V13.5791L16.2255 14.1166ZM14.405 14.8416L14.4153 14.0916H14.405V14.8416ZM7.486 14.8416V14.0916L7.48221 14.0916L7.486 14.8416ZM5.86836 13.1686C5.66014 12.8105 5.20107 12.689 4.84299 12.8973C4.48492 13.1055 4.36343 13.5645 4.57164 13.9226L5.86836 13.1686ZM5.82992 7.54559C5.35444 6.49822 4.3075 5.82839 3.15728 5.83563L3.16672 7.3356C3.72507 7.33209 4.23327 7.65723 4.46408 8.16565L5.82992 7.54559ZM3.17191 5.83568C1.57959 5.81464 0.27157 7.08817 0.250068 8.68049L1.74993 8.70074C1.76025 7.93661 2.38795 7.32545 3.15209 7.33555L3.17191 5.83568ZM0.25 8.69062V12.9026H1.75V8.69062H0.25ZM0.250094 12.9145C0.275285 14.5042 1.58221 15.7736 3.17194 15.7526L3.15206 14.2527C2.38917 14.2628 1.76199 13.6536 1.74991 12.8907L0.250094 12.9145ZM3.15609 15.7526C4.40648 15.7624 5.52319 14.9719 5.92934 13.7892L4.51066 13.302C4.31401 13.8746 3.77333 14.2574 3.16791 14.2526L3.15609 15.7526ZM4.46179 8.16055C4.53594 8.32717 4.57417 8.50754 4.574 8.68991L6.074 8.69132C6.07437 8.29835 5.99198 7.90971 5.83221 7.55068L4.46179 8.16055ZM4.574 8.69062V12.9026H6.074V8.69062H4.574ZM4.57402 12.9078C4.57498 13.0471 4.55357 13.1857 4.51059 13.3182L5.93741 13.781C6.02995 13.4957 6.07606 13.1974 6.07398 12.8974L4.57402 12.9078ZM5.81844 8.18979C5.93735 7.95086 6.10799 7.74142 6.31796 7.57668L5.39204 6.39656C5.00681 6.69881 4.69373 7.08308 4.47556 7.52145L5.81844 8.18979ZM6.29781 7.59195C6.61133 7.3626 6.84106 7.03684 6.95185 6.66452L5.51415 6.23672C5.49688 6.29476 5.46107 6.34554 5.41219 6.38129L6.29781 7.59195ZM6.95933 6.63756L8.04033 2.43756L6.58767 2.06367L5.50667 6.26367L6.95933 6.63756ZM8.03413 2.46018C8.1841 1.94484 8.71904 1.64442 9.23713 1.78459L9.62887 0.336644C8.3218 -0.0169759 6.97222 0.740929 6.59387 2.04105L8.03413 2.46018ZM9.25436 1.78903C9.49658 1.84843 9.70474 2.00273 9.83201 2.21721L11.122 1.45173C10.7892 0.890953 10.245 0.48752 9.61164 0.332202L9.25436 1.78903ZM9.83201 2.21721C9.95928 2.43169 9.99497 2.68833 9.93105 2.92939L11.3809 3.31384C11.5481 2.68354 11.4548 2.01251 11.122 1.45173L9.83201 2.21721ZM9.93294 2.9224L9.31494 5.1654L10.7611 5.56384L11.3791 3.32084L9.93294 2.9224ZM9.3119 5.17678C9.18692 5.6599 9.29496 6.17368 9.60394 6.56555L10.7818 5.63681C10.7631 5.61301 10.7565 5.5818 10.7641 5.55246L9.3119 5.17678ZM9.60394 6.56555C9.91292 6.95742 10.3873 7.18233 10.8863 7.1735L10.8597 5.67373C10.8294 5.67427 10.8006 5.66061 10.7818 5.63681L9.60394 6.56555ZM10.873 7.17362H14.405V5.67362H10.873V7.17362ZM14.4153 7.17355C14.8955 7.16694 15.3586 7.35142 15.7027 7.68638L16.749 6.61153C16.1197 5.99898 15.2728 5.6616 14.3947 5.67369L14.4153 7.17355ZM15.7027 7.68638C16.0468 8.02135 16.2437 8.47933 16.2501 8.95951L17.7499 8.93973C17.7384 8.06161 17.3783 7.22408 16.749 6.61153L15.7027 7.68638ZM16.25 8.94962V12.3166H17.75V8.94962H16.25ZM16.2501 12.3064C16.2436 12.7865 16.0466 13.2443 15.7025 13.5791L16.7485 14.6542C17.3778 14.0419 17.738 13.2047 17.7499 12.3268L16.2501 12.3064ZM15.7025 13.5791C15.3584 13.9139 14.8954 14.0983 14.4153 14.0917L14.3947 15.5915C15.2726 15.6036 16.1193 15.2664 16.7485 14.6542L15.7025 13.5791ZM14.405 14.0916H7.486V15.5916H14.405V14.0916ZM7.48221 14.0916C6.81783 14.095 6.20233 13.743 5.86836 13.1686L4.57164 13.9226C5.17552 14.9612 6.28847 15.5977 7.48979 15.5916L7.48221 14.0916Z" fill="black"/>
</g>
</svg>
