<svg xmlns="http://www.w3.org/2000/svg" xmlns:xlink="http://www.w3.org/1999/xlink" version="1.1" width="256" height="256" viewBox="0 0 256 256" xml:space="preserve">

<defs>
</defs>
<g style="stroke: none; stroke-width: 0; stroke-dasharray: none; stroke-linecap: butt; stroke-linejoin: miter; stroke-miterlimit: 10; fill: none; fill-rule: nonzero; opacity: 1;" transform="translate(1.4065934065934016 1.4065934065934016) scale(2.81 2.81)" >
	<path d="M 23.427 81.098 h 3.602 c 1.939 0 3.791 0.661 5.407 1.732 c 4.036 2.673 10.832 4.237 17.346 4.073 l 25.004 0 c 3.375 0 6.137 -2.761 6.137 -6.137 v -1.224 c 0 -3.375 -2.761 -6.137 -6.137 -6.137 h 8.076 c 3.375 0 6.137 -2.762 6.137 -6.137 v -1.224 c 0 -3.375 -2.762 -6.137 -6.137 -6.137 h -0.266 c 3.375 0 6.137 -2.761 6.137 -6.137 v -1.224 c 0 -3.375 -2.761 -6.137 -6.137 -6.137 h -0.73 c 3.375 0 6.137 -2.761 6.137 -6.137 v -1.224 c 0 -3.375 -2.761 -6.137 -6.137 -6.137 l -23.811 0.042 c 3.829 -6.537 4.019 -27.302 -4.916 -29.776 c -1.678 -0.464 -3.342 0.817 -3.53 2.548 c -1.557 14.33 -10.324 32.142 -19.239 32.658 h -6.944 V 81.098 z" style="stroke: none; stroke-width: 1; stroke-dasharray: none; stroke-linecap: butt; stroke-linejoin: miter; stroke-miterlimit: 10; fill: rgb(253,221,192); fill-rule: nonzero; opacity: 1;" transform=" matrix(1 0 0 1 0 0) " stroke-linecap="round" />
	<path d="M 20.838 86.915 H 3.589 C 2.159 86.915 1 85.756 1 84.326 V 35.408 c 0 -1.43 1.159 -2.589 2.589 -2.589 h 17.249 c 1.43 0 2.589 1.159 2.589 2.589 v 48.917 C 23.427 85.756 22.268 86.915 20.838 86.915 z" style="stroke: none; stroke-width: 1; stroke-dasharray: none; stroke-linecap: butt; stroke-linejoin: miter; stroke-miterlimit: 10; fill: rgb(12,103,180); fill-rule: nonzero; opacity: 1;" transform=" matrix(1 0 0 1 0 0) " stroke-linecap="round" />
	<path d="M 81.867 47.412 H 70.599 c -0.553 0 -1 -0.447 -1 -1 c 0 -0.552 0.447 -1 1 -1 h 11.269 c 0.553 0 1 0.448 1 1 C 82.867 46.965 82.42 47.412 81.867 47.412 z" style="stroke: none; stroke-width: 1; stroke-dasharray: none; stroke-linecap: butt; stroke-linejoin: miter; stroke-miterlimit: 10; fill: rgb(0,0,0); fill-rule: nonzero; opacity: 1;" transform=" matrix(1 0 0 1 0 0) " stroke-linecap="round" />
	<path d="M 82.597 60.909 H 70.599 c -0.553 0 -1 -0.447 -1 -1 s 0.447 -1 1 -1 h 11.998 c 0.553 0 1 0.447 1 1 S 83.149 60.909 82.597 60.909 z" style="stroke: none; stroke-width: 1; stroke-dasharray: none; stroke-linecap: butt; stroke-linejoin: miter; stroke-miterlimit: 10; fill: rgb(0,0,0); fill-rule: nonzero; opacity: 1;" transform=" matrix(1 0 0 1 0 0) " stroke-linecap="round" />
	<path d="M 74.787 74.406 h -7.195 c -0.553 0 -1 -0.447 -1 -1 s 0.447 -1 1 -1 h 7.195 c 0.553 0 1 0.447 1 1 S 75.34 74.406 74.787 74.406 z" style="stroke: none; stroke-width: 1; stroke-dasharray: none; stroke-linecap: butt; stroke-linejoin: miter; stroke-miterlimit: 10; fill: rgb(0,0,0); fill-rule: nonzero; opacity: 1;" transform=" matrix(1 0 0 1 0 0) " stroke-linecap="round" />
	<path d="M 48.846 87.915 c -6.43 0 -13.01 -1.635 -16.961 -4.251 c -1.546 -1.024 -3.226 -1.565 -4.855 -1.565 h -3.602 c -0.552 0 -1 -0.447 -1 -1 s 0.448 -1 1 -1 h 3.602 c 2.024 0 4.084 0.656 5.96 1.897 c 3.824 2.533 10.405 4.069 16.769 3.907 h 25.029 c 2.832 0 5.137 -2.305 5.137 -5.137 v -1.224 c 0 -2.832 -2.305 -5.137 -5.137 -5.137 c -0.553 0 -1 -0.447 -1 -1 s 0.447 -1 1 -1 h 8.076 c 2.832 0 5.137 -2.305 5.137 -5.137 v -1.224 c 0 -2.832 -2.305 -5.137 -5.137 -5.137 h -0.267 c -0.553 0 -1 -0.447 -1 -1 s 0.447 -1 1 -1 c 2.832 0 5.137 -2.305 5.137 -5.137 v -1.224 c 0 -2.832 -2.305 -5.137 -5.137 -5.137 h -0.729 c -0.553 0 -1 -0.447 -1 -1 c 0 -0.552 0.447 -1 1 -1 c 2.832 0 5.137 -2.304 5.137 -5.137 v -1.224 c 0 -2.833 -2.305 -5.137 -5.137 -5.137 l -23.81 0.042 c -0.001 0 -0.001 0 -0.002 0 c -0.358 0 -0.688 -0.191 -0.867 -0.502 c -0.179 -0.311 -0.177 -0.694 0.004 -1.003 c 2.64 -4.507 3.423 -16.03 0.572 -23.053 c -1.183 -2.915 -2.828 -4.683 -4.892 -5.253 c -0.474 -0.133 -0.973 -0.043 -1.402 0.249 c -0.479 0.326 -0.804 0.865 -0.866 1.443 c -1.638 15.069 -10.808 33.007 -20.176 33.549 l -7.001 0.001 c -0.552 0 -1 -0.448 -1 -1 s 0.448 -1 1 -1 h 6.944 c 8.22 -0.478 16.724 -17.77 18.245 -31.767 c 0.127 -1.17 0.758 -2.221 1.731 -2.882 c 0.909 -0.619 2.026 -0.808 3.059 -0.521 c 2.655 0.735 4.804 2.958 6.212 6.429 c 2.853 7.028 2.321 17.726 0.035 23.307 l 22.212 -0.039 c 3.938 0 7.139 3.202 7.139 7.137 v 1.224 c 0 2.462 -1.254 4.638 -3.156 5.921 c 2.305 1.185 3.886 3.588 3.886 6.353 v 1.224 c 0 2.552 -1.347 4.796 -3.366 6.058 C 88.534 61.057 90 63.383 90 66.046 v 1.224 c 0 3.936 -3.201 7.137 -7.137 7.137 h -3.127 c 1.348 1.299 2.188 3.121 2.188 5.137 v 1.224 c 0 3.936 -3.201 7.137 -7.137 7.137 H 49.783 C 49.472 87.911 49.158 87.915 48.846 87.915 z" style="stroke: none; stroke-width: 1; stroke-dasharray: none; stroke-linecap: butt; stroke-linejoin: miter; stroke-miterlimit: 10; fill: rgb(0,0,0); fill-rule: nonzero; opacity: 1;" transform=" matrix(1 0 0 1 0 0) " stroke-linecap="round" />
	<path d="M 20.838 87.915 H 3.589 C 1.61 87.915 0 86.305 0 84.326 V 35.408 c 0 -1.979 1.61 -3.589 3.589 -3.589 h 17.25 c 1.979 0 3.589 1.61 3.589 3.589 v 48.918 C 24.427 86.305 22.817 87.915 20.838 87.915 z M 3.589 33.819 C 2.713 33.819 2 34.532 2 35.408 v 48.918 c 0 0.876 0.713 1.589 1.589 1.589 h 17.25 c 0.876 0 1.589 -0.713 1.589 -1.589 V 35.408 c 0 -0.876 -0.713 -1.589 -1.589 -1.589 H 3.589 z" style="stroke: none; stroke-width: 1; stroke-dasharray: none; stroke-linecap: butt; stroke-linejoin: miter; stroke-miterlimit: 10; fill: rgb(0,0,0); fill-rule: nonzero; opacity: 1;" transform=" matrix(1 0 0 1 0 0) " stroke-linecap="round" />
	<path d="M 12.214 81.958 c -0.552 0 -1 -0.447 -1 -1 v -6.677 c 0 -0.553 0.448 -1 1 -1 s 1 0.447 1 1 v 6.677 C 13.214 81.511 12.766 81.958 12.214 81.958 z" style="stroke: none; stroke-width: 1; stroke-dasharray: none; stroke-linecap: butt; stroke-linejoin: miter; stroke-miterlimit: 10; fill: rgb(0,0,0); fill-rule: nonzero; opacity: 1;" transform=" matrix(1 0 0 1 0 0) " stroke-linecap="round" />
</g>
</svg>